<?xml version="1.0" encoding="UTF-8" standalone="no"?>
<svg width="109px" height="195px" viewBox="0 0 109 195">
  <path d="M41.546713,3.04676911 C41.5505092,2.84729663 41.5301838,2.65012671 41.4876579,2.45906774 C41.4344458,2.10848256 41.3054377,1.76371749 41.0957507,1.44918701 C40.3298696,0.300365288 38.7776962,-0.0100693836 37.6288745,0.755811764 C29.7232181,6.02624936 21.8547066,13.530658 12.292965,24.2835075 C10.5544239,26.238619 8.78270738,28.2725081 6.65935194,30.74175 C5.6072269,31.9652623 2.03378484,36.1414198 1.37684811,36.9063688 C0.477293619,37.9538262 0.597192613,39.5321911 1.64465001,40.4317456 C2.6921074,41.3313001 4.2704724,41.2114011 5.17002689,40.1639437 C5.83128474,39.3939632 9.40330925,35.2194623 10.4504241,34.0017763 C12.5571909,31.5518253 14.3117476,29.5376353 16.0293812,27.6060357 C22.7662444,20.0299603 28.6122092,14.1372278 34.1619319,9.57168894 C33.0898121,12.6222455 31.8558684,16.0444398 30.3637358,20.1233995 C29.8484494,21.5320092 29.3172127,22.9791551 28.58644,24.9662286 C28.3810037,25.5248389 28.1343739,26.1952523 27.678586,27.4342076 C27.3108437,28.4339227 27.0331173,29.1892802 26.7605489,29.931237 C25.261673,34.0113174 24.1324177,37.1071514 23.0258544,40.1802737 C17.586725,55.2857 13.6844988,67.2084302 10.5631039,78.8074708 C2.92100979,107.205339 1.16296608,130.081376 6.75518136,148.541283 C13.5162162,170.859463 30.9362703,185.56722 60.5294413,191.674959 C68.732021,193.367891 75.8942682,194.179247 83.9369647,194.451531 C87.9407031,194.587077 90.9500308,194.595364 98.7259366,194.542078 C101.941284,194.520044 103.629172,194.511719 105.65586,194.511719 C107.036572,194.511719 108.15586,193.392431 108.15586,192.011719 C108.15586,190.631007 107.036572,189.511719 105.65586,189.511719 C103.614474,189.511719 101.9179,189.520087 98.6916736,189.542195 C90.9857008,189.595002 88.0180155,189.586829 84.106142,189.454394 C76.3371627,189.191376 69.4552592,188.411779 61.5400914,186.778166 C33.6738706,181.026852 17.7470957,167.579872 11.5404254,147.091648 C6.276974,129.716992 7.97028772,107.683235 15.3913314,80.1067855 C18.4704817,68.6647251 22.3337591,56.8609981 27.7301748,41.8741952 C28.8324645,38.8129413 29.9583766,35.7262725 31.4538713,31.6553962 C31.7261522,30.9142222 32.0036561,30.1594695 32.3711747,29.1603625 C32.8268804,27.9216309 33.0736178,27.2509249 33.2791562,26.6920372 C34.0108339,24.7025027 34.5429511,23.2529582 35.0594131,21.8411348 C36.2592278,18.5612684 37.2938271,15.7014678 38.2129394,13.1144506 C38.6285174,15.5354271 38.9606705,17.4744831 39.0329399,17.8792568 C39.616266,21.146409 40.0204923,22.9346111 40.6557767,24.9747931 C41.075481,26.3226507 46.6597819,41.26033 50.4840525,52.1890097 C50.9400897,53.4922347 52.3662535,54.179016 53.6694785,53.7229788 C54.9727034,53.2669416 55.6594848,51.8407778 55.2034475,50.5375528 C51.3384844,39.4925851 45.7999295,24.6772738 45.429688,23.4882631 C44.8666706,21.680163 44.5048752,20.0796654 43.9551023,17.0004407 C43.7977542,16.1191498 42.3375761,7.54752166 41.546713,3.04676911 Z"></path>
</svg>
