<?xml version="1.0" encoding="UTF-8" standalone="no"?>
<svg width="28px" height="28px" viewBox="0 0 28 28" version="1.1" xmlns="http://www.w3.org/2000/svg" xmlns:xlink="http://www.w3.org/1999/xlink">
    <g id="list">
        <path d="M21.9608093,8.77897588 C20.9403812,9.13299731 20.087672,9.4285428 19.7826803,9.53328044 C18.7768366,9.87869866 18.0663067,10.1160095 17.37805,10.3341233 C17.3628095,10.1006264 17.3448205,9.8466095 17.3235168,9.56095315 C17.2792886,8.96791026 17.0078173,5.56957134 16.9259652,4.52275585 C16.899002,4.17792051 16.564936,3.91794741 16.179808,3.94208969 C15.7946799,3.96623196 15.50433,4.26534743 15.5312932,4.61018277 C15.6133518,5.6596392 15.88457,9.0548101 15.9285376,9.64435848 C15.9606127,10.0744447 15.9849696,10.4301701 16.0036561,10.7513619 C15.252898,10.9699449 13.5836217,11.4562588 11.4601886,12.0775953 L11.3973212,4.56178167 C11.3944298,4.21611194 11.0791224,3.93798999 10.6930625,3.9405789 C10.3070026,3.94316781 9.99638315,4.22548722 9.99927457,4.57115695 L10.0654798,12.4860122 C8.76018267,12.868544 7.33942446,13.2857668 5.88877205,13.7132268 C5.88474541,13.2508872 5.88114227,12.8427214 5.87867983,12.6198411 C5.8542605,10.4095973 5.80838392,7.83150719 5.72696527,4.43810726 C5.71867322,4.09250758 5.39905119,3.81836245 5.0130695,3.82578697 C4.62708781,3.8332115 4.32090986,4.11939417 4.32920192,4.46499385 C4.41050693,7.85365769 4.45629763,10.4269219 4.48066237,12.6322239 C4.48378958,12.9152736 4.48881234,13.5050497 4.4942192,14.1246167 C3.23154646,14.4975395 1.96693195,14.8722823 0.755610345,15.2330598 C0.276670159,15.3757063 -0.020176972,15.7906889 0.0925837204,16.1599493 C0.205344413,16.5292098 0.685012748,16.7129166 1.16395293,16.5702701 C2.24850588,16.2472491 3.3763833,15.9128599 4.50769508,15.5785024 C4.51031692,15.8284312 4.5126965,16.0227828 4.51461505,16.1214725 C4.54015763,17.435381 4.4773444,16.7236751 5.06227659,22.6930467 C5.09601971,23.0374033 5.43514841,23.2920671 5.81974174,23.2618542 C6.20433506,23.2316414 6.48875535,22.9279929 6.45501223,22.5836363 C5.87513986,16.6659012 5.93715673,17.3685842 5.91248917,16.0996863 C5.90969355,15.9558801 5.90587293,15.6015237 5.90174049,15.1669979 C7.34263969,14.742158 8.76236495,14.3250243 10.0776369,13.9393965 L10.1451682,22.0127716 C10.1480596,22.3584413 10.4633669,22.6365633 10.8494269,22.6339744 C11.2354868,22.6313855 11.5461062,22.349066 11.5432148,22.0033963 L11.4723442,13.5308012 C13.4849997,12.9416255 15.1353444,12.4604385 16.0566447,12.1920462 C16.0616834,13.064502 16.0946038,18.7567475 16.1629458,23.3823703 C16.1680527,23.7280194 16.4851374,24.0045167 16.8711744,23.9999441 C17.2572114,23.9953715 17.5660162,23.7114607 17.5609094,23.3658115 C17.4869405,18.3593422 17.4544575,12.0856436 17.4538015,12.0542633 C17.4518382,11.960343 17.449632,11.868626 17.4471288,11.7780536 C18.2819869,11.5186162 19.0782298,11.2547495 20.2830968,10.8409844 C20.5452358,10.7509629 21.2071897,10.5216561 22.0316715,10.235698 C22.03202,10.2428408 22.0321995,10.2465195 22.0322016,10.2465641 C22.0917948,11.5078156 22.1149357,12.1591903 22.1245015,12.8916621 C22.1329173,13.5360786 22.1002974,19.3759508 22.1002974,23.2744348 C22.1002974,23.6201142 22.4132695,23.9003427 22.7993403,23.9003427 C23.185411,23.9003427 23.4983832,23.6201142 23.4983832,23.2744348 C23.4983832,19.3854158 23.5310689,13.5337879 23.5224918,12.8770252 C23.5127268,12.129302 23.4891825,11.4665706 23.429038,10.1936521 C23.4290117,10.1930958 23.4211084,10.0311639 23.407819,9.7582244 C24.8762685,9.24859842 26.4442968,8.704165 27.1750874,8.45116525 C27.6468721,8.28783333 27.916075,7.863112 27.7763689,7.5025236 C27.6366628,7.1419352 27.1409514,6.98202723 26.6691667,7.14535915 C26.0086796,7.37401981 24.6694136,7.83895832 23.3370523,8.30139001 C23.2776268,7.07511552 23.2030321,5.52796381 23.1568054,4.54026317 C23.140641,4.19488688 22.8148395,3.92663695 22.4291073,3.9411102 C22.0433751,3.95558345 21.7437811,4.24729914 21.7599455,4.59267544 C21.8117297,5.69912054 21.8990402,7.50615088 21.9608093,8.77897588 Z" id="Combined-Shape"></path>
    </g>
</svg>
