<?xml version="1.0" encoding="UTF-8" standalone="no"?>
<svg width="218px" height="48px" viewBox="0 0 218 48" version="1.1" xmlns="http://www.w3.org/2000/svg" xmlns:xlink="http://www.w3.org/1999/xlink">
    <title>Keep a tally</title>
    <g id="LogoSVG">
        <g id="Group">
            <path d="M143.558417,28.9205629 C143.555931,28.8053262 143.554688,28.6885761 143.554688,28.5703125 C143.554688,27.476557 143.664061,26.3046938 143.882812,25.0546875 C144.101564,23.8046812 144.437498,22.5546938 144.890625,21.3046875 C145.343752,20.0546812 145.910153,18.8554745 146.589844,17.7070312 C147.269535,16.558588 148.066402,15.5429732 148.980469,14.6601562 C149.894536,13.7773393 150.929682,13.0742214 152.085938,12.5507812 C153.242193,12.0273411 154.515618,11.765625 155.90625,11.765625 C157.265632,11.765625 158.253903,11.9999977 158.871094,12.46875 C159.488284,12.9375023 159.796875,13.5156216 159.796875,14.203125 L159.796875,14.5546875 L160.3125,12 L167.226562,12 L163.78125,28.3125 C163.703125,28.5781263 163.648438,28.8398425 163.617188,29.0976562 C163.585937,29.35547 163.570312,29.6093738 163.570312,29.859375 C163.570312,31.2343819 164.226556,31.921875 165.539062,31.921875 C166.007815,31.921875 166.441404,31.8007825 166.839844,31.5585938 C167.238283,31.316405 167.601561,30.9921895 167.929688,30.5859375 C168.257814,30.1796855 168.546874,29.6992215 168.796875,29.1445312 C169.046876,28.589841 169.257812,28.0078155 169.429688,27.3984375 L174.5625,3.3515625 L181.664062,2.390625 L176.15625,28.3125 C176.078125,28.5781263 176.027344,28.8398425 176.003906,29.0976562 C175.980469,29.35547 175.96875,29.6093738 175.96875,29.859375 C175.96875,30.5312534 176.124998,30.9960925 176.4375,31.2539062 C176.750002,31.51172 177.242184,31.640625 177.914062,31.640625 C178.382815,31.640625 178.839842,31.5351573 179.285156,31.3242188 C179.730471,31.1132802 180.140623,30.8203144 180.515625,30.4453125 C180.890627,30.0703106 181.226561,29.6210964 181.523438,29.0976562 C181.820314,28.5742161 182.062499,28.0078155 182.25,27.3984375 L187.382812,3.3515625 L194.484375,2.390625 L188.976562,28.3125 C188.898437,28.5781263 188.847656,28.8398425 188.824219,29.0976562 C188.800781,29.35547 188.789062,29.6093738 188.789062,29.859375 C188.789062,30.5312534 188.945311,30.9960925 189.257812,31.2539062 C189.570314,31.51172 190.062497,31.640625 190.734375,31.640625 C191.203127,31.640625 191.660154,31.5351573 192.105469,31.3242188 C192.550783,31.1132802 192.960936,30.8203144 193.335938,30.4453125 C193.710939,30.0703106 194.046874,29.6210964 194.34375,29.0976562 C194.640626,28.5742161 194.882812,28.0078155 195.070312,27.3984375 L198.328125,12 L205.242188,12 L201.796875,28.3125 C201.703125,28.718752 201.65625,29.124998 201.65625,29.53125 C201.65625,29.8125014 201.679687,30.0781238 201.726562,30.328125 C201.773438,30.5781262 201.851562,30.8007803 201.960938,30.9960938 C202.070313,31.1914072 202.214843,31.3476557 202.394531,31.4648438 C202.57422,31.5820318 202.804686,31.640625 203.085938,31.640625 C203.55469,31.640625 203.984373,31.5351573 204.375,31.3242188 C204.765627,31.1132802 205.121092,30.8203144 205.441406,30.4453125 C205.76172,30.0703106 206.042968,29.6210964 206.285156,29.0976562 C206.527345,28.5742161 206.742187,28.0078155 206.929688,27.3984375 L210.1875,12 L217.148438,12 L211.289062,39.84375 C210.945311,41.5625086 210.44141,42.9531197 209.777344,44.015625 C209.113278,45.0781303 208.37891,45.906247 207.574219,46.5 C206.769527,47.093753 205.925786,47.4921865 205.042969,47.6953125 C204.160152,47.8984385 203.328129,48 202.546875,48 C201.828121,48 201.12891,47.8750012 200.449219,47.625 C199.769528,47.3749988 199.167971,47.0234398 198.644531,46.5703125 C198.121091,46.1171852 197.69922,45.5742219 197.378906,44.9414062 C197.058592,44.3085906 196.898438,43.6015664 196.898438,42.8203125 C196.898438,41.6953069 197.113279,40.7500038 197.542969,39.984375 C197.972658,39.2187462 198.562496,38.5703152 199.3125,38.0390625 C200.062504,37.5078098 200.941401,37.0585956 201.949219,36.6914062 C202.957036,36.3242169 204.039057,35.9687517 205.195312,35.625 L205.6875,33.515625 C205.171872,34.109378 204.656253,34.5859357 204.140625,34.9453125 C203.624997,35.3046893 203.11719,35.5820303 202.617188,35.7773438 C202.117185,35.9726572 201.632815,36.1054684 201.164062,36.1757812 C200.69531,36.2460941 200.250002,36.28125 199.828125,36.28125 C199.109371,36.28125 198.437503,36.1718761 197.8125,35.953125 C197.187497,35.7343739 196.644534,35.3906273 196.183594,34.921875 C195.722654,34.4531227 195.359376,33.8593786 195.09375,33.140625 C194.964447,32.7907452 194.866615,32.4056943 194.800256,31.9854693 C194.487047,32.4300239 194.166911,32.8306995 193.839844,33.1875 C193.238278,33.8437533 192.621097,34.374998 191.988281,34.78125 C191.355466,35.187502 190.74219,35.4999989 190.148438,35.71875 C189.554685,35.9375011 188.988284,36.0859371 188.449219,36.1640625 C187.910154,36.2421879 187.42969,36.28125 187.007812,36.28125 C186.289059,36.28125 185.617191,36.1718761 184.992188,35.953125 C184.367184,35.7343739 183.824221,35.3906273 183.363281,34.921875 C182.902341,34.4531227 182.539064,33.8593786 182.273438,33.140625 C182.144134,32.7907452 182.046303,32.4056943 181.979943,31.9854693 C181.666735,32.4300239 181.346598,32.8306995 181.019531,33.1875 C180.417966,33.8437533 179.800784,34.374998 179.167969,34.78125 C178.535153,35.187502 177.921878,35.4999989 177.328125,35.71875 C176.734372,35.9375011 176.167971,36.0859371 175.628906,36.1640625 C175.089841,36.2421879 174.609377,36.28125 174.1875,36.28125 C173.468746,36.28125 172.796878,36.1718761 172.171875,35.953125 C171.546872,35.7343739 171.003909,35.3906273 170.542969,34.921875 C170.082029,34.4531227 169.718751,33.8593786 169.453125,33.140625 C169.332374,32.8138877 169.23907,32.4564781 169.173212,32.0683939 C168.892684,32.4799882 168.607083,32.8530225 168.316406,33.1875 C167.746091,33.8437533 167.164065,34.374998 166.570312,34.78125 C165.97656,35.187502 165.39844,35.4999989 164.835938,35.71875 C164.273435,35.9375011 163.734378,36.0859371 163.21875,36.1640625 C162.703122,36.2421879 162.234377,36.28125 161.8125,36.28125 C160.453118,36.28125 159.371098,35.91016 158.566406,35.1679688 C157.761715,34.4257775 157.273438,33.3281323 157.101562,31.875 C156.710936,32.4218777 156.281252,32.9570286 155.8125,33.4804688 C155.343748,34.0039089 154.820315,34.4726542 154.242188,34.8867188 C153.66406,35.3007833 153.019535,35.6367175 152.308594,35.8945312 C151.597653,36.152345 150.812504,36.28125 149.953125,36.28125 C149.124996,36.28125 148.328129,36.1484388 147.5625,35.8828125 C146.796871,35.6171862 146.11719,35.1796905 145.523438,34.5703125 C144.929685,33.9609345 144.453127,33.1640674 144.09375,32.1796875 C144.057956,32.081642 144.023944,31.9814265 143.991715,31.8790411 C143.65489,32.3662958 143.309996,32.8024471 142.957031,33.1875 C142.355466,33.8437533 141.738284,34.374998 141.105469,34.78125 C140.472653,35.187502 139.859378,35.4999989 139.265625,35.71875 C138.671872,35.9375011 138.105471,36.0859371 137.566406,36.1640625 C137.027341,36.2421879 136.546877,36.28125 136.125,36.28125 C135.406246,36.28125 134.734378,36.1718761 134.109375,35.953125 C133.484372,35.7343739 132.941409,35.3906273 132.480469,34.921875 C132.019529,34.4531227 131.656251,33.8593786 131.390625,33.140625 C131.124999,32.4218714 130.992188,31.5546926 130.992188,30.5390625 C130.992188,30.1015603 131.023437,29.6210964 131.085938,29.0976562 C131.148438,28.5742161 131.242187,28.0078155 131.367188,27.3984375 L134.25,13.921875 L132.65625,13.921875 L133.054688,12 L134.625,12 L136.078125,5.3671875 L143.179688,4.40625 L141.539062,12 L144.421875,12 L144.046875,13.921875 L141.164062,13.921875 L138.09375,28.3125 C138.015625,28.5781263 137.964844,28.8398425 137.941406,29.0976562 C137.917969,29.35547 137.90625,29.6093738 137.90625,29.859375 C137.90625,30.5312534 138.062498,30.9960925 138.375,31.2539062 C138.687502,31.51172 139.179684,31.640625 139.851562,31.640625 C140.320315,31.640625 140.777342,31.5351573 141.222656,31.3242188 C141.667971,31.1132802 142.078123,30.8203144 142.453125,30.4453125 C142.828127,30.0703106 143.164061,29.6210964 143.460938,29.0976562 C143.494114,29.0391617 143.526607,28.9801306 143.558417,28.9205629 Z M204.867188,37.1484375 C204.117184,37.3984387 203.414066,37.6796859 202.757812,37.9921875 C202.101559,38.3046891 201.535159,38.6601543 201.058594,39.0585938 C200.582029,39.4570332 200.207033,39.9101537 199.933594,40.4179688 C199.660155,40.9257838 199.523438,41.4999968 199.523438,42.140625 C199.523438,42.3281259 199.570312,42.5156241 199.664062,42.703125 C199.757813,42.8906259 199.890624,43.058593 200.0625,43.2070312 C200.234376,43.3554695 200.437499,43.4804682 200.671875,43.5820312 C200.906251,43.6835943 201.164061,43.734375 201.445312,43.734375 C201.679689,43.734375 201.933592,43.6757818 202.207031,43.5585938 C202.48047,43.4414057 202.746092,43.2382827 203.003906,42.9492188 C203.26172,42.6601548 203.499999,42.2734399 203.71875,41.7890625 C203.937501,41.3046851 204.124999,40.7031286 204.28125,39.984375 L204.867188,37.1484375 Z M159.351562,16.5703125 C159.351562,16.4296868 159.320313,16.2539073 159.257812,16.0429688 C159.195312,15.8320302 159.089844,15.6289072 158.941406,15.4335938 C158.792968,15.2382803 158.593751,15.0742194 158.34375,14.9414062 C158.093749,14.8085931 157.773439,14.7421875 157.382812,14.7421875 C156.710934,14.7421875 156.074222,14.9609353 155.472656,15.3984375 C154.871091,15.8359397 154.320315,16.4179651 153.820312,17.1445312 C153.32031,17.8710974 152.875002,18.6953079 152.484375,19.6171875 C152.093748,20.5390671 151.76172,21.4882764 151.488281,22.4648438 C151.214842,23.4414111 151.007813,24.402339 150.867188,25.3476562 C150.726562,26.2929735 150.65625,27.1406213 150.65625,27.890625 C150.65625,28.8125046 150.742187,29.523435 150.914062,30.0234375 C151.085938,30.52344 151.292968,30.89453 151.535156,31.1367188 C151.777345,31.3789075 152.039061,31.5234373 152.320312,31.5703125 C152.601564,31.6171877 152.851561,31.640625 153.070312,31.640625 C153.429689,31.640625 153.808592,31.5507821 154.207031,31.3710938 C154.605471,31.1914054 154.988279,30.925783 155.355469,30.5742188 C155.722658,30.2226545 156.058592,29.7812527 156.363281,29.25 C156.66797,28.7187473 156.898437,28.101566 157.054688,27.3984375 L159.351562,16.5703125 Z" id="Combined-Shape"></path>
            <path d="M118.148438,28.3125 C118.070312,28.5781263 118.015625,28.8398425 117.984375,29.0976562 C117.953125,29.35547 117.9375,29.6093738 117.9375,29.859375 C117.9375,30.5312534 118.097655,30.9960925 118.417969,31.2539062 C118.738283,31.51172 119.234372,31.640625 119.90625,31.640625 C120.125001,31.640625 120.320312,31.6250002 120.492188,31.59375 C120.664063,31.5624998 120.820312,31.5078129 120.960938,31.4296875 C120.632811,32.2578166 120.320314,32.9765595 120.023438,33.5859375 C119.726561,34.1953155 119.398439,34.6992168 119.039062,35.0976562 C118.679686,35.4960957 118.269534,35.7929678 117.808594,35.9882812 C117.347654,36.1835947 116.804691,36.28125 116.179688,36.28125 C114.851556,36.28125 113.781254,35.8945351 112.96875,35.1210938 C112.156246,34.3476524 111.656251,33.2500071 111.46875,31.828125 C111.109373,32.3750027 110.691409,32.9140598 110.214844,33.4453125 C109.738279,33.9765652 109.207034,34.4531229 108.621094,34.875 C108.035153,35.2968771 107.382816,35.6367175 106.664062,35.8945312 C105.945309,36.152345 105.164067,36.28125 104.320312,36.28125 C103.492183,36.28125 102.695316,36.1484388 101.929688,35.8828125 C101.164059,35.6171862 100.484378,35.1796905 99.890625,34.5703125 C99.296872,33.9609345 98.8203143,33.1640674 98.4609375,32.1796875 C98.1015607,31.1953076 97.921875,29.9921946 97.921875,28.5703125 C97.921875,27.476557 98.0312489,26.3046938 98.25,25.0546875 C98.4687511,23.8046812 98.8046852,22.5546938 99.2578125,21.3046875 C99.7109398,20.0546812 100.27734,18.8554745 100.957031,17.7070312 C101.636722,16.558588 102.433589,15.5429732 103.347656,14.6601562 C104.261723,13.7773393 105.296869,13.0742214 106.453125,12.5507812 C107.609381,12.0273411 108.882806,11.765625 110.273438,11.765625 C111.632819,11.765625 112.621091,11.9999977 113.238281,12.46875 C113.855472,12.9375023 114.164062,13.5156216 114.164062,14.203125 L114.164062,14.5546875 L114.679688,12 L121.59375,12 L118.148438,28.3125 Z M113.71875,16.5703125 C113.71875,16.4296868 113.6875,16.2539073 113.625,16.0429688 C113.5625,15.8320302 113.457032,15.6289072 113.308594,15.4335938 C113.160156,15.2382803 112.960939,15.0742194 112.710938,14.9414062 C112.460936,14.8085931 112.140627,14.7421875 111.75,14.7421875 C111.078122,14.7421875 110.441409,14.9609353 109.839844,15.3984375 C109.238278,15.8359397 108.687502,16.4179651 108.1875,17.1445312 C107.687498,17.8710974 107.242189,18.6953079 106.851562,19.6171875 C106.460936,20.5390671 106.128908,21.4882764 105.855469,22.4648438 C105.58203,23.4414111 105.375001,24.402339 105.234375,25.3476562 C105.093749,26.2929735 105.023438,27.1406213 105.023438,27.890625 C105.023438,28.8125046 105.109374,29.523435 105.28125,30.0234375 C105.453126,30.52344 105.660155,30.89453 105.902344,31.1367188 C106.144532,31.3789075 106.406249,31.5234373 106.6875,31.5703125 C106.968751,31.6171877 107.218749,31.640625 107.4375,31.640625 C107.796877,31.640625 108.175779,31.5507821 108.574219,31.3710938 C108.972658,31.1914054 109.355467,30.925783 109.722656,30.5742188 C110.089846,30.2226545 110.42578,29.7812527 110.730469,29.25 C111.035158,28.7187473 111.265624,28.101566 111.421875,27.3984375 L113.71875,16.5703125 Z" id="Combined-Shape"></path>
            <path d="M46.6527884,28.0706726 C46.683672,27.2941867 46.773367,26.4294886 46.921875,25.4765625 C47.1093759,24.2734315 47.406248,23.0390688 47.8125,21.7734375 C48.218752,20.5078062 48.7578091,19.2656311 49.4296875,18.046875 C50.1015659,16.8281189 50.9140577,15.7382861 51.8671875,14.7773438 C52.8203173,13.8164014 53.9374936,13.0429717 55.21875,12.4570312 C56.5000064,11.8710908 57.9609293,11.578125 59.6015625,11.578125 C60.6796929,11.578125 61.5585904,11.70703 62.2382812,11.9648438 C62.9179721,12.2226575 63.4570293,12.5624979 63.8554687,12.984375 C64.2539082,13.4062521 64.527343,13.8945285 64.6757812,14.4492188 C64.8242195,15.003909 64.8984375,15.578122 64.8984375,16.171875 C64.8984375,17.562507 64.593753,18.8554628 63.984375,20.0507812 C63.374997,21.2460997 62.5585989,22.289058 61.5351562,23.1796875 C60.5117136,24.070317 59.3359441,24.7890598 58.0078125,25.3359375 C56.6796809,25.8828152 55.2968822,26.2031245 53.859375,26.296875 C53.8281248,26.6562518 53.8007814,26.9960921 53.7773437,27.3164062 C53.7539061,27.6367204 53.7421875,27.9374986 53.7421875,28.21875 C53.7421875,29.0312541 53.8164055,29.6992161 53.9648437,30.2226562 C54.113282,30.7460964 54.3320298,31.1562485 54.6210937,31.453125 C54.9101577,31.7500015 55.2695291,31.9570307 55.6992187,32.0742188 C56.1289084,32.1914068 56.6328096,32.25 57.2109375,32.25 C58.1640673,32.25 59.0273399,32.1250012 59.8007812,31.875 C60.5742226,31.6249988 61.2968716,31.2812522 61.96875,30.84375 C62.6406284,30.4062478 63.2773407,29.890628 63.8789062,29.296875 C64.4804718,28.703122 65.0859345,28.0703159 65.6953125,27.3984375 L65.7067405,27.3984375 L69.3515625,10.21875 L76.265625,10.21875 L75.4921875,13.828125 C76.195316,13.234372 76.9999955,12.7421895 77.90625,12.3515625 C78.8125045,11.9609355 79.8749939,11.765625 81.09375,11.765625 C81.9062541,11.765625 82.6718714,11.89453 83.390625,12.1523438 C84.1093786,12.4101575 84.7304661,12.8320283 85.2539062,13.4179688 C85.7773464,14.0039092 86.1914047,14.7812452 86.4960938,15.75 C86.8007828,16.7187548 86.953125,17.9140554 86.953125,19.3359375 C86.953125,20.4140679 86.878907,21.582025 86.7304688,22.8398438 C86.5820305,24.0976625 86.3281268,25.3554625 85.96875,26.6132812 C85.6093732,27.8711 85.1367217,29.0820254 84.5507812,30.2460938 C83.9648408,31.4101621 83.2343794,32.4374955 82.359375,33.328125 C81.4843706,34.2187545 80.4492247,34.9335911 79.2539062,35.4726562 C78.0585878,36.0117214 76.6875077,36.28125 75.140625,36.28125 C74.531247,36.28125 74.0000023,36.2343755 73.546875,36.140625 C73.0937477,36.0468745 72.7070329,35.9218758 72.3867188,35.765625 C72.0664046,35.6093742 71.8007823,35.4257823 71.5898438,35.2148438 C71.3789052,35.0039052 71.2031257,34.7890636 71.0625,34.5703125 L68.578125,46.265625 L61.3359375,48 L65.0047275,30.7073407 C64.1431833,31.7586016 63.1741691,32.6946871 62.0976562,33.515625 C61.0117133,34.3437541 59.8086004,35.0117162 58.4882812,35.5195312 C57.1679621,36.0273463 55.7187579,36.28125 54.140625,36.28125 C52.9999943,36.28125 51.9687546,36.1367202 51.046875,35.8476562 C50.1249954,35.5585923 49.3359408,35.109378 48.6796875,34.5 C48.0234342,33.890622 47.519533,33.1054736 47.1679687,32.1445312 C46.9853442,31.6453575 46.8501537,31.0924306 46.7623965,30.4857458 C46.7104475,30.5505082 46.6581383,30.6151555 46.6054688,30.6796875 C45.7382769,31.7421928 44.7617242,32.6874959 43.6757812,33.515625 C42.5898383,34.3437541 41.3867254,35.0117162 40.0664062,35.5195312 C38.7460871,36.0273463 37.2968829,36.28125 35.71875,36.28125 C34.5781193,36.28125 33.5468796,36.1367202 32.625,35.8476562 C31.7031204,35.5585923 30.9140658,35.109378 30.2578125,34.5 C29.6015592,33.890622 29.097658,33.1054736 28.7460938,32.1445312 C28.3945295,31.1835889 28.21875,30.0234443 28.21875,28.6640625 C28.21875,27.7421829 28.3124991,26.6796935 28.5,25.4765625 C28.6875009,24.2734315 28.984373,23.0390688 29.390625,21.7734375 C29.796877,20.5078062 30.3359341,19.2656311 31.0078125,18.046875 C31.6796909,16.8281189 32.4921827,15.7382861 33.4453125,14.7773438 C34.3984423,13.8164014 35.5156186,13.0429717 36.796875,12.4570312 C38.0781314,11.8710908 39.5390543,11.578125 41.1796875,11.578125 C42.2578179,11.578125 43.1367154,11.70703 43.8164062,11.9648438 C44.4960971,12.2226575 45.0351543,12.5624979 45.4335938,12.984375 C45.8320332,13.4062521 46.105468,13.8945285 46.2539062,14.4492188 C46.4023445,15.003909 46.4765625,15.578122 46.4765625,16.171875 C46.4765625,17.562507 46.171878,18.8554628 45.5625,20.0507812 C44.953122,21.2460997 44.1367239,22.289058 43.1132812,23.1796875 C42.0898386,24.070317 40.9140691,24.7890598 39.5859375,25.3359375 C38.2578059,25.8828152 36.8750072,26.2031245 35.4375,26.296875 C35.4062498,26.6562518 35.3789064,26.9960921 35.3554688,27.3164062 C35.3320311,27.6367204 35.3203125,27.9374986 35.3203125,28.21875 C35.3203125,29.0312541 35.3945305,29.6992161 35.5429688,30.2226562 C35.691407,30.7460964 35.9101548,31.1562485 36.1992188,31.453125 C36.4882827,31.7500015 36.8476541,31.9570307 37.2773438,32.0742188 C37.7070334,32.1914068 38.2109346,32.25 38.7890625,32.25 C39.7421923,32.25 40.6054649,32.1250012 41.3789062,31.875 C42.1523476,31.6249988 42.8749966,31.2812522 43.546875,30.84375 C44.2187534,30.4062478 44.8554657,29.890628 45.4570312,29.296875 C45.8539189,28.9051418 46.2525028,28.4964095 46.6527884,28.0706726 Z M71.8359375,31.0078125 C71.929688,31.2734388 72.1210923,31.5234363 72.4101562,31.7578125 C72.6992202,31.9921887 73.1171848,32.109375 73.6640625,32.109375 C74.5078167,32.109375 75.2578092,31.8945334 75.9140625,31.4648438 C76.5703158,31.0351541 77.148435,30.4648473 77.6484375,29.7539062 C78.14844,29.0429652 78.5703108,28.2343795 78.9140625,27.328125 C79.2578142,26.4218705 79.5390614,25.4921923 79.7578125,24.5390625 C79.9765636,23.5859327 80.1367182,22.6445359 80.2382812,21.7148438 C80.3398443,20.7851516 80.390625,19.9453162 80.390625,19.1953125 C80.390625,18.2734329 80.3046884,17.5468777 80.1328125,17.015625 C79.9609366,16.4843723 79.7539075,16.0859388 79.5117188,15.8203125 C79.26953,15.5546862 79.0078139,15.3867191 78.7265625,15.3164062 C78.4453111,15.2460934 78.1953136,15.2109375 77.9765625,15.2109375 C77.4296848,15.2109375 76.8554718,15.4101543 76.2539062,15.8085938 C75.6523407,16.2070332 75.1250023,16.7968711 74.671875,17.578125 L71.8359375,31.0078125 Z M54.234375,24 C55.1406295,23.9374997 56.0156208,23.6796898 56.859375,23.2265625 C57.7031292,22.7734352 58.4453093,22.1835974 59.0859375,21.4570312 C59.7265657,20.7304651 60.2382793,19.9023484 60.6210938,18.9726562 C61.0039082,18.0429641 61.1953125,17.07813 61.1953125,16.078125 C61.1953125,15.484372 61.1093759,15.0078143 60.9375,14.6484375 C60.7656241,14.2890607 60.4531273,14.109375 60,14.109375 C59.390622,14.109375 58.7929717,14.4023408 58.2070312,14.9882812 C57.6210908,15.5742217 57.0703151,16.3359328 56.5546875,17.2734375 C56.0390599,18.2109422 55.5820332,19.2695254 55.1835938,20.4492188 C54.7851543,21.6289121 54.4687512,22.8124941 54.234375,24 Z M35.8125,24 C36.7187545,23.9374997 37.5937458,23.6796898 38.4375,23.2265625 C39.2812542,22.7734352 40.0234343,22.1835974 40.6640625,21.4570312 C41.3046907,20.7304651 41.8164043,19.9023484 42.1992188,18.9726562 C42.5820332,18.0429641 42.7734375,17.07813 42.7734375,16.078125 C42.7734375,15.484372 42.6875009,15.0078143 42.515625,14.6484375 C42.3437491,14.2890607 42.0312523,14.109375 41.578125,14.109375 C40.968747,14.109375 40.3710967,14.4023408 39.7851562,14.9882812 C39.1992158,15.5742217 38.6484401,16.3359328 38.1328125,17.2734375 C37.6171849,18.2109422 37.1601582,19.2695254 36.7617188,20.4492188 C36.3632793,21.6289121 36.0468762,22.8124941 35.8125,24 Z M4.5234375,36 L11.4609375,3.3515625 C9.33592687,4.24219195 7.68750586,5.57420988 6.515625,7.34765625 C5.34374414,9.12110262 4.7578125,11.2968621 4.7578125,13.875 C4.7578125,14.484378 4.7929684,14.9804668 4.86328125,15.3632812 C4.9335941,15.7460957 5.00781211,16.0507801 5.0859375,16.2773438 C5.16406289,16.5039074 5.2382809,16.6796869 5.30859375,16.8046875 C5.3789066,16.9296881 5.4140625,17.039062 5.4140625,17.1328125 C4.58593336,17.1328125 3.8515657,17.0507821 3.2109375,16.8867188 C2.5703093,16.7226554 2.0351584,16.4609393 1.60546875,16.1015625 C1.1757791,15.7421857 0.847657383,15.265628 0.62109375,14.671875 C0.394530117,14.078122 0.28125,13.3437544 0.28125,12.46875 C0.28125,11.4062447 0.511716445,10.3593802 0.97265625,9.328125 C1.43359605,8.29686984 2.06640223,7.32031711 2.87109375,6.3984375 C3.67578527,5.47655789 4.62108832,4.62500391 5.70703125,3.84375 C6.79297418,3.06249609 7.95702504,2.3867216 9.19921875,1.81640625 C10.4414125,1.2460909 11.7382745,0.800782852 13.0898438,0.48046875 C14.441413,0.160154648 15.7890558,0 17.1328125,0 C17.4921893,0 17.8242172,0.00781242188 18.1289063,0.0234375 C18.4335953,0.0390625781 18.7421859,0.0624998438 19.0546875,0.09375 L15.9375,14.7890625 C16.328127,14.2734349 16.7773412,13.6718784 17.2851562,12.984375 C17.7929713,12.2968716 18.3398408,11.5625039 18.9257813,10.78125 C19.5117217,9.99999609 20.1132782,9.19922285 20.7304688,8.37890625 C21.3476593,7.55858965 21.9453096,6.7539102 22.5234375,5.96484375 C23.1015654,5.1757773 23.6523411,4.43359723 24.1757813,3.73828125 C24.6992214,3.04296527 25.156248,2.43359637 25.546875,1.91015625 C25.937502,1.38671613 26.2499988,0.976563984 26.484375,0.6796875 C26.7187512,0.382811016 26.8359375,0.234375 26.8359375,0.234375 L31.875,0.234375 L18.5390625,15.609375 C18.8515641,15.609375 19.1406237,15.6015626 19.40625,15.5859375 C19.6718763,15.5703124 19.9374987,15.5625 20.203125,15.5625 C21.3750059,15.5625 22.3437462,15.691405 23.109375,15.9492188 C23.8750038,16.2070325 24.4843727,16.5664039 24.9375,17.0273438 C25.3906273,17.4882836 25.7070304,18.0312469 25.8867188,18.65625 C26.0664071,19.2812531 26.15625,19.9609338 26.15625,20.6953125 C26.15625,21.6953175 26.0351575,22.7460882 25.7929688,23.8476562 C25.55078,24.9492243 25.2812515,26.0390571 24.984375,27.1171875 C24.6874985,28.1953179 24.41797,29.2265576 24.1757813,30.2109375 C23.9335925,31.1953174 23.8125,32.0703087 23.8125,32.8359375 C23.8125,33.5859413 23.9804671,34.2460909 24.3164063,34.8164062 C24.6523454,35.3867216 25.1093721,35.7812489 25.6875,36 C24.6562448,36.2968765 23.7500039,36.5078119 22.96875,36.6328125 C22.1874961,36.7578131 21.5078154,36.8203125 20.9296875,36.8203125 C20.1484336,36.8203125 19.5156274,36.7226572 19.03125,36.5273438 C18.5468726,36.3320303 18.1679701,36.0820328 17.8945313,35.7773438 C17.6210924,35.4726547 17.4335943,35.1289082 17.3320312,34.7460938 C17.2304682,34.3632793 17.1796875,33.9843769 17.1796875,33.609375 C17.1796875,32.7968709 17.3124987,31.8554741 17.578125,30.7851562 C17.8437513,29.7148384 18.1367171,28.6054745 18.4570312,27.4570312 C18.7773454,26.308588 19.0703112,25.1718806 19.3359375,24.046875 C19.6015638,22.9218694 19.734375,21.8984421 19.734375,20.9765625 C19.734375,20.4921851 19.6835943,20.0507832 19.5820312,19.6523438 C19.4804682,19.2539043 19.3203136,18.9101577 19.1015625,18.6210938 C18.8828114,18.3320298 18.5859394,18.1093758 18.2109375,17.953125 C17.8359356,17.7968742 17.3828152,17.71875 16.8515625,17.71875 C16.6328114,17.71875 16.3867201,17.7304686 16.1132812,17.7539062 C15.8398424,17.7773439 15.554689,17.8281246 15.2578125,17.90625 L11.4140625,36 L4.5234375,36 Z" id="Combined-Shape"></path>
        </g>
    </g>
</svg>
